<svg xmlns="http://www.w3.org/2000/svg" width="4000" height="5000" viewBox="5.745 3.231 728.553 306.791">
    <path d="M311.546 83.385c0-19.218-3.246-37.703-8.812-55.08l.108-.256c4.484-2.177 13.606-6.875 22.788-11.811 9.953-5.352 20.875-10.419 26.429-11.53 7.214-1.443 13.938.742 17.973 6.929 4.03-6.19 10.75-8.372 17.964-6.929 5.558 1.111 16.48 6.174 26.434 11.53 9.182 4.937 18.304 9.63 22.77 11.786l.114.256c-5.553 17.394-8.8 35.887-8.8 55.105 0 18.396 3.516 36 8.637 52.731l-.13.26c-30.6 11.333-49.217 25.56-66.808 43.889h-.307c-17.62-18.329-36.055-32.489-66.857-43.864l-.126-.26c5.113-16.756 8.623-34.359 8.623-52.756" fill="#000"/>
    <path d="M405.508 25.269c-7.713-3.838-15.687-7.5-19.974-8.355-8.146-1.631-14.356 4.857-15.343 8.783l-.205.813-.206-.813c-.99-3.926-7.06-10.415-15.2-8.783-4.295.86-12.26 4.518-19.974 8.359-7.58 3.771-14.877 7.697-18.132 9.261 4.408 14.479 6.774 29.595 6.854 45.626h10.918v-8.238h24.75V47.176h21.63v24.746h24.743v8.234h11.426c.08-16.027 2.437-31.147 6.85-45.626-3.264-1.561-10.558-5.486-18.137-9.261M369.99 164.064c14.853-14.021 33.332-27.624 53.432-34.587-2.01-6.941-4.03-16.576-5.201-26.114-1.078-8.745-1.346-16.782-1.455-18.04H405.37v8.233h-24.742v24.747h-21.63V93.556h-24.752v-8.233h-10.964c-.37 14.768-2.856 31.046-6.67 44.158 20.096 6.959 38.522 20.561 53.378 34.583" fill="#fff"/>
</svg>
