<svg xmlns="http://www.w3.org/2000/svg" width="20.463" height="35.372" viewBox="0 0 20.463 35.372">
  <g id="ico_servicios-comercial" transform="translate(-32.55 -19.65)">
    <path id="Path_2019" data-name="Path 2019" d="M41.949,44.445h.295a.457.457,0,0,0,.457-.462v-.792h4.126a.971.971,0,0,0,.977-.977V36.979a3.219,3.219,0,0,0-3.219-3.219H33.877a.977.977,0,0,0-.977.977v7.478a.977.977,0,0,0,.977.977h5.588v.763a.462.462,0,0,0,.462.462h.295L34.01,56.048a.58.58,0,1,0,1.023.549L40.5,46.386V59.9a.578.578,0,1,0,1.156,0V46.386L47.133,56.6a.583.583,0,1,0,1.029-.549Z" transform="translate(0 -5.809)" fill="none" stroke="#00a1ed" stroke-width="0.7"/>
    <path id="Path_2020" data-name="Path 2020" d="M63.576,36.324l-1.942.971a.717.717,0,0,0-.4.647v4.045a.717.717,0,0,0,.4.647l1.942.971a.722.722,0,0,0,1.046-.647V36.971a.722.722,0,0,0-1.046-.647Z" transform="translate(-11.959 -6.859)" fill="none" stroke="#00a1ed" stroke-width="0.7"/>
    <circle id="Ellipse_41" data-name="Ellipse 41" cx="3.23" cy="3.23" r="3.23" transform="translate(33.882 20)" fill="none" stroke="#00a1ed" stroke-width="0.7"/>
    <circle id="Ellipse_42" data-name="Ellipse 42" cx="3.23" cy="3.23" r="3.23" transform="translate(41.007 20)" fill="none" stroke="#00a1ed" stroke-width="0.7"/>
  </g>
</svg>
