<svg xmlns="http://www.w3.org/2000/svg" width="42.26" height="30.7" viewBox="0 0 42.26 30.7">
  <g id="ico_servicios-transporte" transform="translate(-4.121 -16.785)">
    <path id="Path_2010" data-name="Path 2010" d="M25.251,17.135a20.78,20.78,0,0,0-20.78,20.78v9.22h7.457V32.5H38.575V47.135h7.457v-9.22A20.781,20.781,0,0,0,25.251,17.135Z" fill="none" stroke="#00a1ed" stroke-width="0.7"/>
    <path id="Path_2011" data-name="Path 2011" d="M66.027,72.92a.943.943,0,0,1-.943-.942.924.924,0,0,1,.038-.264l1.563-.412a.942.942,0,0,1-.657,1.618Z" transform="translate(-32.948 -29.444)" fill="none" stroke="#00a1ed" stroke-width="0.7"/>
    <path id="Path_2012" data-name="Path 2012" d="M55.717,62.133l-1.1.407c-.022-.016-.047-.029-.069-.046s-.056-.037-.085-.055c-.076-.049-.153-.1-.232-.141-.038-.022-.078-.044-.117-.064s-.059-.033-.089-.048Z" transform="translate(-26.939 -24.46)" fill="none" stroke="#00a1ed" stroke-width="0.7"/>
    <path id="Path_2013" data-name="Path 2013" d="M49.2,55.084a.106.106,0,0,1,.209,0l.48,2.837c-.032-.005-.065-.007-.1-.01l-.113-.012c-.121-.01-.242-.018-.364-.018h-.02c-.122,0-.243.007-.364.018l-.112.012c-.033,0-.067.005-.1.01Z" transform="translate(-24.052 -20.581)" fill="none" stroke="#00a1ed" stroke-width="0.7"/>
    <path id="Path_2014" data-name="Path 2014" d="M43.368,62.539l-1.1-.407,1.69.052c-.03.015-.059.033-.089.048l-.118.063c-.079.045-.156.093-.233.142l-.084.055C43.414,62.509,43.39,62.523,43.368,62.539Z" transform="translate(-20.548 -24.46)" fill="none" stroke="#00a1ed" stroke-width="0.7"/>
    <path id="Path_2015" data-name="Path 2015" d="M32.67,71.976a.943.943,0,1,1-1.6-.675l1.562.412A.952.952,0,0,1,32.67,71.976Z" transform="translate(-14.304 -29.444)" fill="none" stroke="#00a1ed" stroke-width="0.7"/>
    <path id="Path_2016" data-name="Path 2016" d="M32.12,69.814l-2.572-.677h0l-1.991-.524h0l-2.744-.722a.347.347,0,0,1-.3-.368.421.421,0,0,1,.435-.295h7.286c-.018.048-.031.1-.047.146s-.032.092-.046.139c-.026.085-.047.171-.067.257-.01.043-.021.085-.029.126-.019.1-.032.192-.044.289-.005.037-.011.073-.015.11-.013.135-.021.271-.021.408s.007.254.019.38c0,.031.006.062.01.093a3.681,3.681,0,0,0,.056.367.06.06,0,0,0,0,.01C32.075,69.639,32.1,69.726,32.12,69.814Z" transform="translate(-10.895 -27.229)" fill="none" stroke="#00a1ed" stroke-width="0.7"/>
    <path id="Path_2017" data-name="Path 2017" d="M49.262,65.607c-.006-.053-.016-.1-.025-.159-.011-.076-.022-.152-.037-.226-.013-.06-.03-.118-.046-.177s-.035-.135-.057-.2-.041-.113-.062-.169-.051-.132-.08-.2a3.767,3.767,0,0,0-1.61-1.752l-.04-.022c-.093-.05-.188-.1-.286-.137-.021-.01-.042-.018-.064-.026-.094-.039-.189-.075-.287-.1a.35.35,0,0,0-.037-.012c-.1-.029-.2-.054-.3-.076l-.026-.006c-.1-.021-.2-.036-.3-.048-.025,0-.047-.009-.072-.011a3.764,3.764,0,0,0-.792,0l-.064.01c-.1.013-.207.029-.309.05l-.026.006c-.1.021-.2.047-.295.076l-.04.012c-.1.03-.192.067-.285.1-.021.009-.043.017-.064.027-.1.042-.193.087-.285.137l-.04.022a3.763,3.763,0,0,0-1.609,1.749c-.03.067-.056.135-.083.2s-.042.109-.06.164-.04.137-.059.206-.031.114-.044.173c-.017.076-.028.153-.039.23-.007.052-.018.1-.023.155a3.7,3.7,0,0,0-.021.4c0,.123.006.244.018.364,0,.04.011.08.017.12.01.079.021.157.036.234.01.049.022.1.033.143.016.068.032.135.052.2.015.051.032.1.05.151a3.739,3.739,0,0,0,7.079-.008c.016-.047.032-.093.046-.14.021-.068.037-.136.054-.206.01-.047.023-.093.032-.14.015-.078.026-.156.036-.236.005-.04.012-.079.016-.12.011-.12.019-.241.019-.364A3.275,3.275,0,0,0,49.262,65.607Zm-1.3-1.518a1.517,1.517,0,0,1-.144.212,2.541,2.541,0,0,1-.183.21l-.116.116c-.031.03-.063.056-.1.084l-.047.04c-.039.031-.074.058-.111.086l-.053.04c-.044.031-.084.056-.125.083l-.06.039c-.051.03-.1.055-.143.08l-.064.035c-.074.036-.141.065-.209.1-.105.04-.184.068-.265.1l-.052.014c-.068.018-.138.037-.208.052l-.09.015c-.06.009-.12.019-.18.026l-.205.012-.047,0H45.54l-.239-.012c-.1-.008-.166-.02-.235-.031L45,65.375c-.085-.018-.157-.037-.23-.057,0,0-.039-.01-.042-.011-.081-.026-.16-.054-.237-.083l-.046-.02c-.063-.027-.124-.054-.183-.083l-.071-.039c-.047-.025-.092-.05-.136-.076l-.064-.042-.123-.08-.053-.041c-.039-.029-.076-.057-.111-.086a3.02,3.02,0,0,1-.266-.244c-.074-.077-.133-.149-.181-.209a1.542,1.542,0,0,1-.144-.214.173.173,0,0,1,.244-.228l.187.111c.047.028.106.059.171.094l.043.023c.081.042.175.088.277.136l.514.2c.029.007.071.02.114.033l.272.068.134.023.067.012c.056,0,.124.01.2.021l.211.007h.015l.393-.029.46-.1.128-.038.5-.2c.1-.047.193-.092.276-.136l.4-.227a.174.174,0,0,1,.247.228Z" transform="translate(-20.289 -24.53)" fill="none" stroke="#00a1ed" stroke-width="0.7"/>
    <path id="Path_2018" data-name="Path 2018" d="M65.986,67.889l-2.743.722h0l-1.991.524h0l-2.572.677c.025-.088.046-.178.064-.267v0c.025-.122.042-.245.056-.369,0-.03.007-.062.01-.092.011-.126.019-.252.019-.38s-.008-.273-.021-.408c0-.037-.01-.071-.015-.107-.012-.1-.026-.2-.045-.293-.009-.041-.019-.081-.028-.121-.021-.089-.042-.178-.068-.265-.013-.045-.029-.088-.043-.132s-.03-.1-.049-.151h7.286a.422.422,0,0,1,.436.295A.348.348,0,0,1,65.986,67.889Z" transform="translate(-29.403 -27.228)" fill="none" stroke="#00a1ed" stroke-width="0.7"/>
  </g>
</svg>
