<svg xmlns="http://www.w3.org/2000/svg" width="45.979" height="18.432" viewBox="0 0 45.979 18.432">
  <path id="ico_servicios-vip" d="M23.36,37.4,20.75,33.555h5.279L30.121,37.4Zm27.146,5.8C50.507,44.509,44.191,45,38.18,45h-6.6l-5.558,5.218H20.745L24.291,45h-6.6a3.155,3.155,0,0,1-2.249-.939h-.02l-.093-.137a3.144,3.144,0,0,1-.451-.663L10.1,36.232H5.163c-.3,0-.285-.233-.1-.285S8.634,34.89,9.1,34.754L7.349,32.182h5.279l6.9,6.478H38.18c3.81,0,4.048,1.977,5.6,2.3C46.87,41.6,50.507,42.59,50.507,43.2ZM26.431,41.021a.9.9,0,1,0-.9.9A.9.9,0,0,0,26.431,41.021Zm3.226,0a.9.9,0,1,0-.9.9A.9.9,0,0,0,29.657,41.021Zm3.226,0a.9.9,0,1,0-.9.9A.9.9,0,0,0,32.884,41.021Zm3.226,0a.9.9,0,1,0-.9.9A.9.9,0,0,0,36.11,41.021Z" transform="translate(-4.728 -31.982)" fill="none" stroke="#00a1ed" stroke-width="0.4"/>
</svg>
