<svg xmlns="http://www.w3.org/2000/svg" xmlns:xlink="http://www.w3.org/1999/xlink" width="103.707" height="63.888" viewBox="0 0 103.707 63.888">
  <defs>
    <clipPath id="clip-path">
      <path id="Path_2031" data-name="Path 2031" d="M203.48,45.9v8.271h9.7V62.45h32.64V36.83H203.48Z" transform="translate(-203.48 -36.83)" fill="none"/>
    </clipPath>
  </defs>
  <g id="ico_complementa_asistencia" transform="translate(0.02 1.92)">
    <path id="Path_2026" data-name="Path 2026" d="M157.669,34.139h-9.459V24.68h-7.689v9.459H131.06v7.692h9.462v9.459h7.689V41.831h9.459Z" transform="translate(-87.714 -17.8)" fill="#28aae1"/>
    <path id="Path_2027" data-name="Path 2027" d="M73.616,164.414a71.566,71.566,0,0,1-18.1-2.316,6.018,6.018,0,0,1-3.308-1.73l-.017-.02-.179-.248v-.023a5.819,5.819,0,0,1-.612-3.259l.139-19.291c0-1.108,0-1.909.7-2.534a2.815,2.815,0,0,1,.959-.552,20.138,20.138,0,0,1,4.48-1.092c.94-.093,1.886-.139,2.819-.139a28.81,28.81,0,0,1,6.282.694c2.359.481,4.705,1.152,6.975,1.8s4.7,1.346,7.09,1.823a89.326,89.326,0,0,0,8.982,1.168c1.3.122,2.647.251,3.95.4.8.083,1.628.185,2.438.308,2.2.331,4.9,1.217,5.26,3.53a3.95,3.95,0,0,1-2.346,3.891,10.815,10.815,0,0,1-4.132.817H93.926c-2.141.122-4.327.182-6.488.182s-4.347-.06-6.5-.182c-.242-.017-.552-.036-.857-.036a2.353,2.353,0,0,0-2.011.691,1.925,1.925,0,0,0,.433,2.458,5.383,5.383,0,0,0,2.8,1.085,43.1,43.1,0,0,0,17.256-.959c4.248-.992,8.416-2.349,12.446-3.669,1.423-.466,2.892-.946,4.334-1.4a10.686,10.686,0,0,1,1.959-.466,4.01,4.01,0,0,1,.48-.03,3.8,3.8,0,0,1,.615.05v-.056l.437.146a3.454,3.454,0,0,1,1.485,5.555h-.017a6.187,6.187,0,0,1-2.174,1.241l-7.5,3.06a136.912,136.912,0,0,1-22.5,7.639,71.793,71.793,0,0,1-14.507,1.469Z" transform="translate(-40.348 -103.244)" fill="#121f48"/>
    <path id="Path_2028" data-name="Path 2028" d="M59.771,132.771a28.383,28.383,0,0,1,6.2.688c4.751.966,9.32,2.676,14.067,3.623,4.264.857,8.638,1.079,12.959,1.575.811.083,1.621.182,2.428.3,2.1.331,4.652,1.155,4.982,3.255a3.6,3.6,0,0,1-2.15,3.533,10.517,10.517,0,0,1-4,.794H93.186q-3.239.185-6.488.182t-6.488-.182c-.281-.02-.579-.036-.873-.036a2.691,2.691,0,0,0-2.286.837,2.263,2.263,0,0,0,.5,2.9,5.766,5.766,0,0,0,2.978,1.161,43.479,43.479,0,0,0,17.405-.953c5.753-1.323,11.275-3.338,16.793-5.075a10.448,10.448,0,0,1,1.906-.457,3.859,3.859,0,0,1,.433-.026,3.948,3.948,0,0,1,.946.122h0a3.12,3.12,0,0,1,1.323,5.009,5.905,5.905,0,0,1-2.058,1.174L109.8,154.22a136.373,136.373,0,0,1-22.454,7.609,71.2,71.2,0,0,1-32.462-.841,5.74,5.74,0,0,1-3.146-1.651l-.152-.208A5.512,5.512,0,0,1,51,156.052q.069-9.5.139-19.007c0-1.227-.043-2.028.592-2.607a2.468,2.468,0,0,1,.844-.483,19.725,19.725,0,0,1,4.413-1.075q1.39-.139,2.779-.139m0-.662h0c-.943,0-1.9.05-2.842.139h0a20.542,20.542,0,0,0-4.572,1.158,3.123,3.123,0,0,0-1.055.609,3.394,3.394,0,0,0-.817,2.786v.314l-.139,18.977a6.193,6.193,0,0,0,.662,3.414l.023.046.033.043.149.205.03.04.033.036a6.375,6.375,0,0,0,3.494,1.826,71.813,71.813,0,0,0,32.717.84h.023a137.626,137.626,0,0,0,22.556-7.656l7.477-3.024a6.491,6.491,0,0,0,2.266-1.3l.033-.026.026-.033a3.781,3.781,0,0,0-.347-5.333,3.706,3.706,0,0,0-1.274-.738l-.877-.3v.149h-.285a3.351,3.351,0,0,0-.509.026,11.093,11.093,0,0,0-2.045.486c-1.429.453-2.9.933-4.321,1.4-4.023,1.323-8.185,2.68-12.41,3.659h-.017a43.174,43.174,0,0,1-17.133.917h-.04a5.069,5.069,0,0,1-2.627-1.016,1.6,1.6,0,0,1-.361-2.011,2.1,2.1,0,0,1,1.737-.546c.294,0,.6.017.827.036,2.174.122,4.367.182,6.534.182s4.347-.06,6.5-.182h1.049a11.1,11.1,0,0,0,4.241-.844,4.274,4.274,0,0,0,2.561-4.188v-.06c-.331-1.985-2.23-3.308-5.538-3.808-.817-.122-1.654-.225-2.458-.308-1.323-.152-2.647-.278-3.947-.4a88.593,88.593,0,0,1-8.952-1.161c-2.375-.476-4.757-1.158-7.06-1.816s-4.632-1.323-7-1.806a29.051,29.051,0,0,0-6.336-.7Z" transform="translate(-39.647 -102.488)" fill="#fcfdff"/>
    <path id="Path_1976" data-name="Path 1976" d="M27.072,131.433a8.35,8.35,0,0,1,.218-2.22,4.3,4.3,0,0,1,.374-.913,3.884,3.884,0,0,1,.787-.993,4.962,4.962,0,0,1,1.614-.953v-.414a1.836,1.836,0,0,0-1.879-1.793H19.9a1.836,1.836,0,0,0-1.9,1.8v31.41a1.846,1.846,0,0,0,1.889,1.793H28.16a1.846,1.846,0,0,0,1.889-1.793v-.331a5.8,5.8,0,0,1-1.876-1.545h0l-.3-.417a7.679,7.679,0,0,1-.936-4.374Zm-4.552-.758a1.373,1.373,0,1,0,1.366-1.38,1.373,1.373,0,0,0-1.366,1.38Z" transform="translate(-18.02 -97.179)" fill="#121f48"/>
    <g id="Group_92" data-name="Group 92" transform="translate(61.343 -1.92)" clip-path="url(#clip-path)">
      <path id="Path_2029" data-name="Path 2029" d="M199.388,80.817s9.594.2,14.888-.387c-.331,0-7.94,7.877-34.149,14.226C179.935,94.438,199.388,80.817,199.388,80.817Z" transform="translate(-187.852 -66.006)" fill="#28aae1"/>
      <path id="Path_2030" data-name="Path 2030" d="M180.13,66.792l6.706-17.2s20.8-2.279,38.609-10.8C225.445,38.777,194.035,60.956,180.13,66.792Z" transform="translate(-187.855 -38.142)" fill="#162048"/>
    </g>
  </g>
</svg>
