<svg xmlns="http://www.w3.org/2000/svg" width="57.677" height="78.048" viewBox="0 0 57.677 78.048">
  <g id="ico_complementa-seat" transform="translate(-5.9 3.867)">
    <path id="Path_284" data-name="Path 284" d="M49.37,38.847a1.628,1.628,0,0,1-1.628,1.628H28.775l.251.652c1.443,2.979,3.087,5.444,4.506,5.444H57.9a4.873,4.873,0,0,1,4.873,4.873v2.442A4.873,4.873,0,0,1,57.9,58.759H53.035L57.8,70.171a2.431,2.431,0,0,1-2.28,3.21H23.729a2.431,2.431,0,0,1-2.28-3.21l4.973-11.412H23.79c-.077,0-.15-.023-.228-.023a5.046,5.046,0,0,1-4.865-3.7L6.88,11.446a5.016,5.016,0,0,1,3.588-6.134,5.073,5.073,0,0,1,6.223,3.553L26.923,35.6H46.141a3.252,3.252,0,0,1,3.229,3.245ZM28.351,65.468a2.427,2.427,0,0,0,2.315,3.025H48.548a2.427,2.427,0,0,0,2.315-3.025l-2.735-6.721H31.094Z" transform="translate(0)" fill="none" stroke="#152049" stroke-width="1.6" fill-rule="evenodd"/>
    <g id="Rectangle_17069" data-name="Rectangle 17069" transform="translate(38.714 -3.867)" fill="none" stroke="#152049" stroke-width="1.6">
      <rect width="22" height="28" rx="8" stroke="none"/>
      <rect x="0.8" y="0.8" width="20.4" height="26.4" rx="7.2" fill="none"/>
    </g>
  </g>
</svg>
