<svg xmlns="http://www.w3.org/2000/svg" width="53.1" height="72.462" viewBox="0 0 53.1 72.462">
  <g id="ico_complementos_equipaje-extra" transform="translate(-19.9 -9)">
    <path id="Path_201" data-name="Path 201" d="M69.889,44.391h-5.4v-4.07a2.473,2.473,0,0,0-2.477-2.477H60.334V27.934a2.607,2.607,0,0,0-2.654-2.654H47.416V12.274A3.266,3.266,0,0,0,44.143,9H36.091a3.266,3.266,0,0,0-3.274,3.274V25.191H22.554A2.607,2.607,0,0,0,19.9,27.845V75.623a2.607,2.607,0,0,0,2.654,2.654h.708a4.081,4.081,0,0,0,7.963,0h17.7a4.081,4.081,0,0,0,7.963,0H57.5a2.607,2.607,0,0,0,2.654-2.654v-.531h1.593a4.081,4.081,0,0,0,7.963,0h0a3.266,3.266,0,0,0,3.274-3.274V47.664A3.067,3.067,0,0,0,69.889,44.391Zm-7.874-4.778a.7.7,0,0,1,.708.708v4.07H60.245V39.524h1.77ZM34.587,12.274a1.491,1.491,0,0,1,1.5-1.5h8.051a1.491,1.491,0,0,1,1.5,1.5V25.191H34.587ZM27.244,79.781a2.346,2.346,0,0,1-2.123-1.416h4.335A2.475,2.475,0,0,1,27.244,79.781Zm25.747,0a2.346,2.346,0,0,1-2.123-1.416H55.2A2.475,2.475,0,0,1,52.99,79.781Zm5.574-4.07a.836.836,0,0,1-.885.885H22.466a.836.836,0,0,1-.885-.885V27.934a.836.836,0,0,1,.885-.885H57.591a.836.836,0,0,1,.885.885V75.711Zm7.255.885A2.346,2.346,0,0,1,63.7,75.18h4.335A2.475,2.475,0,0,1,65.819,76.6Zm5.574-4.778a1.491,1.491,0,0,1-1.5,1.5H60.334V46.16h9.644a1.491,1.491,0,0,1,1.5,1.5V71.818Z" fill="#152049"/>
  </g>
</svg>
