<svg xmlns="http://www.w3.org/2000/svg" width="81.542" height="72.248" viewBox="0 0 81.542 72.248">
  <g id="ico_complementa_taxi" transform="translate(-5.5 -8.5)">
    <path id="Path_187" data-name="Path 187" d="M46.646,38H27.238a4.08,4.08,0,0,0-3.265,1.684,4.994,4.994,0,0,0-.774,4.372l.9,3.1a4.276,4.276,0,0,0,4.039,3.237H45.75a4.276,4.276,0,0,0,4.035-3.237l.9-3.1a4.994,4.994,0,0,0-.774-4.372A4.08,4.08,0,0,0,46.646,38ZM47.7,43.195l-.9,3.1a1.239,1.239,0,0,1-1.059,1H28.133a1.239,1.239,0,0,1-1.059-1l-.9-3.1a1.91,1.91,0,0,1,.271-1.65,1,1,0,0,1,.788-.446H46.646a1,1,0,0,1,.788.448,1.91,1.91,0,0,1,.271,1.65Z" transform="translate(9.329 15.917)" fill="#152049" stroke="#fff" stroke-width="1"/>
    <path id="Path_188" data-name="Path 188" d="M13.549,42.684H72.407a1.549,1.549,0,0,0,1.383-2.247L65.348,23.724A4.647,4.647,0,0,0,61.118,21H24.837a4.626,4.626,0,0,0-4.2,2.667l-8.469,16.77a1.549,1.549,0,0,0,1.383,2.247Zm9.879-17.679a1.549,1.549,0,0,1,1.409-.908H61.118a1.58,1.58,0,0,1,1.437.965L69.89,39.587H16.066Z" transform="translate(3.293 6.587)" fill="#152049" stroke="#fff" stroke-width="1"/>
    <path id="Path_189" data-name="Path 189" d="M19.519,38H14.1A3.1,3.1,0,0,0,11,41.1V44.97a3.1,3.1,0,0,0,3.1,3.1H26.489a1.549,1.549,0,0,0,1.549-1.549A8.528,8.528,0,0,0,19.519,38ZM14.1,44.97V41.1h5.421a5.429,5.429,0,0,1,5.195,3.872Z" transform="translate(2.744 15.917)" fill="#152049" stroke="#fff" stroke-width="1"/>
    <path id="Path_190" data-name="Path 190" d="M59.038,44.97V41.1a3.1,3.1,0,0,0-3.1-3.1H50.519A8.528,8.528,0,0,0,42,46.519a1.549,1.549,0,0,0,1.549,1.549H55.94A3.1,3.1,0,0,0,59.038,44.97ZM50.519,41.1H55.94V44.97H45.324A5.429,5.429,0,0,1,50.519,41.1Z" transform="translate(19.76 15.917)" fill="#152049" stroke="#fff" stroke-width="1"/>
    <path id="Path_191" data-name="Path 191" d="M79.959,35.331H76.593l-3.418-7.563a10.861,10.861,0,0,0-9.88-6.377h-.358L59.81,10.134A1.549,1.549,0,0,0,58.318,9H34.224a1.549,1.549,0,0,0-1.492,1.134L29.6,21.391h-.358a10.861,10.861,0,0,0-9.88,6.377l-3.418,7.563H12.583C7.724,35.331,6,38.043,6,40.365A5.04,5.04,0,0,0,11.034,45.4H11.4l-1.053,2.323A13.955,13.955,0,0,0,9.1,53.512v12.8a7.67,7.67,0,0,0,1.557,4.608c0,.014-.008.025-.008.039V75.6a4.647,4.647,0,0,0,4.647,4.647h6.2A4.647,4.647,0,0,0,26.135,75.6V74.053H66.406V75.6a4.647,4.647,0,0,0,4.647,4.647h6.2A4.647,4.647,0,0,0,81.9,75.6V70.955c0-.014-.008-.025-.008-.039a7.67,7.67,0,0,0,1.557-4.608v-12.8a13.955,13.955,0,0,0-1.239-5.79L81.152,45.4h.364a5.04,5.04,0,0,0,5.026-5.034C86.542,38.043,84.818,35.331,79.959,35.331ZM9.1,40.365c0-1.747,2.438-1.936,3.485-1.936h1.876L12.738,42.3h-1.7A1.939,1.939,0,0,1,9.1,40.365ZM35.4,12.1h21.74l2.582,9.293h-26.9ZM23.038,75.6a1.549,1.549,0,0,1-1.549,1.549h-6.2A1.549,1.549,0,0,1,13.744,75.6V73.4a7.667,7.667,0,0,0,3.1.657h6.2Zm-6.2-4.647A4.647,4.647,0,0,1,12.2,66.309v-12.8a10.865,10.865,0,0,1,.971-4.506L22.19,29.042a7.757,7.757,0,0,1,7.057-4.554H63.295a7.755,7.755,0,0,1,7.057,4.555l9.024,19.962a10.865,10.865,0,0,1,.971,4.506v12.8A4.647,4.647,0,0,1,75.7,70.955Zm60.406,6.2h-6.2A1.549,1.549,0,0,1,69.5,75.6V74.053h6.2a7.667,7.667,0,0,0,3.1-.657V75.6A1.549,1.549,0,0,1,77.248,77.151ZM81.508,42.3H79.8l-1.721-3.872h1.876c1.047,0,3.485.189,3.485,1.936A1.939,1.939,0,0,1,81.508,42.3Z" transform="translate(0)" fill="#152049" stroke="#fff" stroke-width="1"/>
    <rect id="Rectangle_16927" data-name="Rectangle 16927" width="3" height="3" transform="translate(39 17)" fill="#152049" stroke="#fff" stroke-width="1"/>
    <rect id="Rectangle_16928" data-name="Rectangle 16928" width="3" height="3" transform="translate(42 14)" fill="#152049" stroke="#fff" stroke-width="1"/>
    <rect id="Rectangle_16929" data-name="Rectangle 16929" width="3" height="3" transform="translate(45 17)" fill="#152049" stroke="#fff" stroke-width="1"/>
    <rect id="Rectangle_16930" data-name="Rectangle 16930" width="3" height="3" transform="translate(48 14)" fill="#152049" stroke="#fff" stroke-width="1"/>
    <rect id="Rectangle_16931" data-name="Rectangle 16931" width="3" height="3" transform="translate(51 17)" fill="#152049" stroke="#fff" stroke-width="1"/>
  </g>
</svg>
