<svg xmlns="http://www.w3.org/2000/svg" width="27.983" height="29.199" viewBox="0 0 27.983 29.199">
  <g id="ico-menu-promo-promo" transform="translate(-2.583 -5.525)">
    <path id="Path_3384" data-name="Path 3384" d="M86,90" transform="translate(-57.957 -57.111)" fill="none" stroke="#33b5e5" stroke-linecap="round" stroke-width="1" fill-rule="evenodd"/>
    <path id="Path_3385" data-name="Path 3385" d="M33.033,20.125l1.6-3.255a1.431,1.431,0,0,0-.638-1.915L30.8,13.265l-.638-3.542a1.433,1.433,0,0,0-1.627-1.181l-3.574.511L22.375,6.532a1.485,1.485,0,0,0-2.042,0L17.749,9.053l-3.574-.511a1.458,1.458,0,0,0-1.627,1.181l-.638,3.542L8.719,14.956A1.47,1.47,0,0,0,8.08,16.87l1.6,3.255L8.08,23.38a1.431,1.431,0,0,0,.638,1.915l3.191,1.691.638,3.542a1.433,1.433,0,0,0,1.627,1.181l3.574-.511,2.585,2.521a1.485,1.485,0,0,0,2.042,0L24.96,31.2l3.574.511a1.458,1.458,0,0,0,1.627-1.181l.638-3.542,3.191-1.691a1.47,1.47,0,0,0,.638-1.915Z" transform="translate(-4.798)" fill="none" stroke="#33b5e5" stroke-linecap="round" stroke-width="1"/>
    <line id="Line_10" data-name="Line 10" x1="8.296" y2="10.849" transform="translate(12.567 14.381)" fill="none" stroke="#33b5e5" stroke-linecap="round" stroke-width="1"/>
    <circle id="Ellipse_257" data-name="Ellipse 257" cx="2.074" cy="2.074" r="2.074" transform="translate(11.77 13.743)" fill="none" stroke="#33b5e5" stroke-linecap="round" stroke-width="1"/>
    <circle id="Ellipse_258" data-name="Ellipse 258" cx="2.074" cy="2.074" r="2.074" transform="translate(17.194 22.04)" fill="none" stroke="#33b5e5" stroke-linecap="round" stroke-width="1"/>
  </g>
</svg>
