<svg xmlns="http://www.w3.org/2000/svg" width="43.887" height="27.429" viewBox="0 0 43.887 27.429">
  <g id="ico-servicios-comercio" transform="translate(0 -10)">
    <g id="_23_Sea_Plane" data-name="23 Sea Plane" transform="translate(0 10)">
      <g id="Group_154" data-name="Group 154">
        <path id="Path_3376" data-name="Path 3376" d="M35.4,29.372H30.473a2.045,2.045,0,0,0-3.861,0H21.686a.686.686,0,1,0,0,1.371h4.927a2.044,2.044,0,0,0,3.861,0H35.4a.686.686,0,1,0,0-1.371Zm-6.857,1.371a.686.686,0,1,1,.686-.686A.686.686,0,0,1,28.543,30.743Z" transform="translate(-6.6 -15.657)" fill="#00a1ed"/>
        <path id="Path_3377" data-name="Path 3377" d="M32.172,36.429H28.057A2.057,2.057,0,0,1,26,34.371v-.686a.686.686,0,1,1,1.371,0v.686a.686.686,0,0,0,.686.686h4.114a.686.686,0,0,0,.686-.686v-.686a.686.686,0,1,1,1.371,0v.686A2.057,2.057,0,0,1,32.172,36.429Z" transform="translate(-8.171 -17.228)" fill="#00a1ed"/>
        <path id="Path_3378" data-name="Path 3378" d="M32.172,20H28.057A2.057,2.057,0,0,0,26,22.057v3.429a.686.686,0,1,0,1.371,0V24.114h5.486v1.371a.686.686,0,1,0,1.371,0V22.057A2.057,2.057,0,0,0,32.172,20Zm-4.8,2.057a.686.686,0,0,1,.686-.686h1.371v1.371H27.371Zm3.429.686V21.371h1.371a.686.686,0,0,1,.686.686v.686Z" transform="translate(-8.171 -13.143)" fill="#00a1ed"/>
        <path id="Path_3379" data-name="Path 3379" d="M38.571,41.791,37.2,39.733a.686.686,0,0,0-.571-.305h-.437l-3.924-3.27a.686.686,0,1,0-.879,1.055l3.2,2.667-1.07,1.606H19.167L18.1,39.879l3.2-2.666a.686.686,0,0,0-.878-1.055l-3.924,3.27h-.437a.686.686,0,0,0-.571.305l-1.371,2.057a.686.686,0,0,0-.043.686,3.429,3.429,0,0,0,1.985,1.661v.777a.686.686,0,0,0,1.371,0v-.777a3.238,3.238,0,0,0,1.749-1.28H33.509a3.243,3.243,0,0,0,1.749,1.28v.777a.686.686,0,0,0,1.371,0v-.777a3.421,3.421,0,0,0,1.984-1.659A.686.686,0,0,0,38.571,41.791ZM16.743,42.857a1.636,1.636,0,0,1-1.234-.686l.915-1.371h.638l.915,1.371A1.637,1.637,0,0,1,16.743,42.857Zm19.2,0a1.638,1.638,0,0,1-1.234-.686l.916-1.371h.638l.915,1.371A1.635,1.635,0,0,1,35.943,42.857Z" transform="translate(-4.4 -18.171)" fill="#00a1ed"/>
        <path id="Path_3380" data-name="Path 3380" d="M33.914,12.743H30.486V10.686a.686.686,0,0,0-1.371,0v2.057H25.686a.686.686,0,0,0,0,1.371h3.429v1.371a.686.686,0,0,0,1.371,0V14.114h3.429a.686.686,0,0,0,0-1.371Z" transform="translate(-7.857 -10)" fill="#00a1ed"/>
        <path id="Path_3381" data-name="Path 3381" d="M16.457,25.8a.657.657,0,0,1-.089-.006L.6,23.737a.686.686,0,0,1-.6-.68V21.686a.686.686,0,1,1,1.371,0v.769l15.174,1.98a.686.686,0,0,1-.088,1.365Z" transform="translate(0 -13.457)" fill="#00a1ed"/>
        <path id="Path_3382" data-name="Path 3382" d="M39.688,25.8a.686.686,0,0,1-.088-1.365l15.174-1.98v-.769a.686.686,0,1,1,1.371,0v1.371a.686.686,0,0,1-.6.68L39.776,25.794a.65.65,0,0,1-.088.006Z" transform="translate(-12.258 -13.457)" fill="#00a1ed"/>
      </g>
    </g>
  </g>
</svg>
