<svg xmlns="http://www.w3.org/2000/svg" width="29.779" height="29.799" viewBox="0 0 29.779 29.799">
  <g id="ico-menu-exp-pago" transform="translate(-0.043 -0.001)">
    <path id="Path_3367" data-name="Path 3367" d="M96.3,66.187a.466.466,0,0,1-.466-.389c-.805-4.875-2.111-12.38-2.4-13.085l-.091-.219c-.363-.889-.7-1.73-1.413-2.023-.931-.384-4.3-1.52-4.339-1.532a.466.466,0,0,1,.3-.882c.14.047,3.443,1.164,4.4,1.555a4.091,4.091,0,0,1,1.918,2.53l.088.216c.426,1.029,2.253,12.038,2.461,13.288a.466.466,0,0,1-.384.535Z" transform="translate(-66.934 -36.855)" fill="#33b5e5"/>
    <path id="Path_3368" data-name="Path 3368" d="M69.267,60.71a.466.466,0,0,1-.21-.051,6.087,6.087,0,0,1-1.881-1.578,6.866,6.866,0,0,1-1.262-3.2,8.063,8.063,0,0,1-.037-1.669,4.689,4.689,0,0,0-.147-1.927c-.172-.356-.873-1.643-1.683-3.131-.379-.7-.782-1.436-1.164-2.149-1.134-2.1-1.709-3.2-1.862-3.576A2.216,2.216,0,0,1,61,41.53a2.372,2.372,0,0,1,1.259-1.087c.661-.272,1.676-.31,2.763,1.062l5.617,7.072-.729.58L64.29,42.073c-.584-.736-1.148-1-1.678-.78a1.5,1.5,0,0,0-.785.645,1.334,1.334,0,0,0,.049,1.127c.184.447,1.129,2.2,1.823,3.492.384.71.787,1.45,1.164,2.146.817,1.5,1.52,2.793,1.7,3.171a5.076,5.076,0,0,1,.233,2.374,7.34,7.34,0,0,0,.023,1.467,5.926,5.926,0,0,0,1.085,2.793,5.214,5.214,0,0,0,1.56,1.325.466.466,0,0,1-.212.88Z" transform="translate(-46.614 -30.912)" fill="#33b5e5"/>
    <path id="Path_3369" data-name="Path 3369" d="M69.785,84.6H69.75c-.142,0-2.328-.466-2.754-1.227-.088-.161-.265-.414-.452-.68a9.176,9.176,0,0,1-.931-1.515.466.466,0,0,1,.861-.356,8.818,8.818,0,0,0,.831,1.343c.21.3.391.561.5.764a5.621,5.621,0,0,0,2.011.74.467.467,0,0,1-.035.931Z" transform="translate(-50.279 -61.785)" fill="#33b5e5"/>
    <path id="Path_3370" data-name="Path 3370" d="M63.808,87.441a4.969,4.969,0,0,1-1.578-.177c-.726-.3-2.74-2.759-3.04-3.206a1.664,1.664,0,0,1,.263-2.188,1.739,1.739,0,0,1,1.825-.379.466.466,0,1,1-.356.859.812.812,0,0,0-.829.193.733.733,0,0,0-.13,1A17.755,17.755,0,0,0,62.586,86.4a8.515,8.515,0,0,0,2.244.072.467.467,0,1,1,.061.931C64.739,87.416,64.306,87.441,63.808,87.441Z" transform="translate(-45.152 -62.434)" fill="#33b5e5"/>
    <path id="Path_3371" data-name="Path 3371" d="M15.516,19.711a1.776,1.776,0,0,1-.91-.251L.918,11.312A1.8,1.8,0,0,1,.291,8.861L5.04.876A1.8,1.8,0,0,1,7.5.252L21.187,8.4a1.8,1.8,0,0,1,.624,2.449l-1.476,2.486a.466.466,0,1,1-.8-.466l1.478-2.486a.864.864,0,0,0-.3-1.18L7.017,1.053a.866.866,0,0,0-1.164.3L1.092,9.338a.864.864,0,0,0,.3,1.18l13.688,8.148a.866.866,0,0,0,1.18-.3l.7-1.164a.466.466,0,1,1,.8.466l-.7,1.164a1.781,1.781,0,0,1-1.1.819A1.816,1.816,0,0,1,15.516,19.711Z" transform="translate(0)" fill="#33b5e5"/>
    <path id="Path_3372" data-name="Path 3372" d="M22.986,23.817a.931.931,0,0,1-.466-.13h0L20.812,22.67a.931.931,0,0,1-.324-1.276l.768-1.292a.931.931,0,0,1,1.276-.324l1.7,1.015a.931.931,0,0,1,.324,1.276l-.768,1.292a.942.942,0,0,1-.8.456Zm0-.931h0l.78-1.294-1.709-1.017-.768,1.292L23,22.884Z" transform="translate(-15.586 -15.073)" fill="#33b5e5"/>
    <path id="Path_3373" data-name="Path 3373" d="M19.578,42.254a.466.466,0,0,1-.233-.065l-5.587-3.324a.466.466,0,0,1,.466-.8l5.587,3.324a.466.466,0,0,1-.233.866Z" transform="translate(-10.375 -29.17)" fill="#33b5e5"/>
    <path id="Path_3374" data-name="Path 3374" d="M44.24,56.939a.466.466,0,0,1-.233-.065l-1.63-.966a.466.466,0,1,1,.466-.8l1.63.966a.466.466,0,0,1-.233.866Z" transform="translate(-32.269 -42.209)" fill="#33b5e5"/>
  </g>
</svg>
