<svg xmlns="http://www.w3.org/2000/svg" width="24.965" height="30.261" viewBox="0 0 24.965 30.261">
  <g id="ico-menu-exp-servicio" transform="translate(-14.815 -79.99)">
    <path id="Path_3375" data-name="Path 3375" d="M171.309,83.646A12.482,12.482,0,0,0,150,92.473v5.674a.378.378,0,0,0,.378.378h1.513v3.783a.378.378,0,0,0,.378.378h4.161a.378.378,0,0,0,.378-.378V92.473a.378.378,0,0,0-.378-.378h-3.775a9.834,9.834,0,0,1,19.653,0h-3.775a.378.378,0,0,0-.378.378v9.835a.378.378,0,0,0,.378.378h3.77a5.681,5.681,0,0,1-5.661,5.3h-.416a1.891,1.891,0,1,0,0,.757h.416a6.438,6.438,0,0,0,6.43-6.43V98.525h1.513a.378.378,0,0,0,.378-.378V92.473a12.4,12.4,0,0,0-3.656-8.826Zm-6.935,25.848a1.135,1.135,0,1,1,1.135-1.135A1.135,1.135,0,0,1,164.374,109.494Zm-8.322-7.565h-3.4V92.851h3.4Zm12.861-9.078h3.4v9.078h-3.4Zm5.3,4.917h-1.135v-5.3a10.591,10.591,0,1,0-21.182,0v5.3h-1.135v-5.3a11.726,11.726,0,1,1,23.452,0Z" transform="translate(-135.185)" fill="#00a1ed"/>
  </g>
</svg>
