<svg xmlns="http://www.w3.org/2000/svg" width="37.525" height="27.2" viewBox="0 0 37.525 27.2">
  <g id="ico-menu-promo-nesletter" transform="translate(-24.438 -11.104)">
    <path id="Path_3383" data-name="Path 3383" d="M7.391,29.222l8.9,3.4,2.364,10.243c0,.014.012.026.017.04a.549.549,0,0,0,.03.073.555.555,0,0,0,.072.115c.009.012.013.026.023.037s.018.01.025.018a.562.562,0,0,0,.13.09c.017.009.031.021.048.027a.564.564,0,0,0,.2.042h.007a.564.564,0,0,0,.2-.037c.018-.007.033-.019.05-.027a.561.561,0,0,0,.124-.079c.007-.006.015-.008.021-.014L26.7,36.4l6.292,2.266a.569.569,0,0,0,.7-.28L44.5,16.927c.007-.014.007-.029.013-.043a.621.621,0,0,0,.041-.195.548.548,0,0,0,0-.084.559.559,0,0,0-.027-.116c-.006-.016,0-.034-.012-.05s-.013-.016-.017-.025a.99.99,0,0,0-.122-.162c-.007-.006-.01-.014-.017-.02a.552.552,0,0,0-.079-.045.568.568,0,0,0-.072-.041.559.559,0,0,0-.12-.029.543.543,0,0,0-.072-.013.567.567,0,0,0-.2.027h0L7.416,28.15a.569.569,0,0,0-.024,1.072Zm13.737,4.235a.564.564,0,0,0-.2.3s0,.006,0,.009l-1.683,6.562L17.43,32.48,36.955,21.34Zm-.871,7.5,1.615-6.3L25.5,35.964ZM32.9,37.42,22.648,33.728l19.715-15.1Zm5.868-18.425L16.731,31.569,9.292,28.73Z" transform="translate(17.413 -5)" fill="#00a1ed"/>
  </g>
</svg>
