<svg xmlns="http://www.w3.org/2000/svg" width="35.618" height="25.562" viewBox="0 0 35.618 25.562">
  <g id="ico_menu-reservacion-reservacin" transform="translate(-4.573 -19.37)">
    <path id="Path_1983" data-name="Path 1983" d="M4.573,25.821A2.222,2.222,0,0,1,6.8,23.6H9.23L9.8,21.1a2.223,2.223,0,0,1,2.662-1.67L30.678,23.6h2.844l.054,0h0l.047,0h.026l.037,0h0l.051.006h0l.015,0,.036.005h0l.009,0,.037.006.009,0,.013,0,.036.007h.006l.029.006.025.005h0l.042.01.007,0h0l.048.013h0l.009,0,.034.01.009,0,.006,0,.038.013.008,0,.008,0,.044.015h0l.043.016.008,0,.006,0,.042.017.005,0,.042.018,0,0,0,0,.04.018.011.005.037.018.005,0,0,0,.04.021.011.006.041.023h0l.03.018,0,0,.021.013.005,0,.029.018h0l.043.028,0,0,.033.023.009.006h0l.012.009.024.018.007.005.013.01.027.022h0l.025.02.007.005.018.015,0,0,.027.023,0,0,.008.007.025.022.007.006.009.009.025.024,0,0,.007.007.024.022.008.008.008.008.025.025,0,0,.008.009.022.023.007.007.007.008.024.026.018.021.005.006.017.02.005.007.022.027.006.007.016.02.008.011.013.017h0l.021.028h0l.013.018c.016.022.031.045.046.068l.007.011.005.009.015.024.01.016h0l3.094.709a2.222,2.222,0,0,1,1.67,2.662L36.661,43.205A2.223,2.223,0,0,1,34,44.876L28.422,43.6H6.8a2.222,2.222,0,0,1-2.222-2.223V25.821ZM35.439,24.8Zm0,0h0Zm0,0h0Zm0,0h0Zm0,0h0Zm.005.011h0l0,.008Zm0,0h0Zm.17.449v-.008l-.011-.042.013.048v0Zm0,.014.005.022-.008-.033v0h0l0,.014Zm.008.031h0v0ZM10.37,23.6H25.7L12.218,20.51a1.111,1.111,0,0,0-1.331.835L10.37,23.6Zm25.051,1.169h0Zm0,0h0Zm0,0h0Zm0,0h0Zm0,0,.012.023-.011-.02h0v0Zm.018.034,0,.008h0v0Zm.005.01h0Zm0,0h0Zm0,0h0Zm0,0h0Zm0,0h0v0Zm0,0h0Zm0,0h0Zm0,0h0Zm0,0v0Zm0,0h0Zm0,0h0Zm0,0h0Zm0,0h0Zm0,0h0Zm0,0h0Zm0,0,0,0,0,0Zm0,0h0Zm0,0h0Zm0,0h0Zm0,0h0Zm0,0h0Zm.154.417,0,.013v-.013Zm.011.046v0Zm0,0v0Zm.058.572V41.377A2.222,2.222,0,0,1,33.464,43.6H33.4l.848.194a1.111,1.111,0,0,0,1.331-.835L39.048,27.8a1.111,1.111,0,0,0-.835-1.331l-2.526-.579ZM11.8,30.266a.544.544,0,0,0-.555.555A14.258,14.258,0,0,0,12.352,33.6a14.253,14.253,0,0,0-1.111,2.778.544.544,0,0,0,.555.555c.341,0,1.308-1.253,2.005-2.222H16.25A26.481,26.481,0,0,0,14.574,38.6a.544.544,0,0,0,.555.556c.4,0,2.769-2.824,4.1-4.445h3.125a1.111,1.111,0,1,0,0-2.223H19.228c-1.33-1.621-3.7-4.444-4.1-4.444a.544.544,0,0,0-.555.555,26.48,26.48,0,0,0,1.676,3.889H13.8c-.7-.969-1.664-2.222-2.005-2.222ZM27.908,40.822V39.71a.556.556,0,0,0-1.111,0v1.112a.556.556,0,0,0,1.111,0Zm0-3.334V36.377a.556.556,0,1,0-1.111,0v1.111a.556.556,0,1,0,1.111,0Zm0-3.334V33.044a.556.556,0,1,0-1.111,0v1.111a.556.556,0,1,0,1.111,0Zm0-3.333V29.71a.556.556,0,0,0-1.111,0v1.111a.556.556,0,0,0,1.111,0Zm0-3.334V26.377a.556.556,0,0,0-1.111,0v1.111a.556.556,0,0,0,1.111,0ZM5.684,25.821V41.377A1.111,1.111,0,0,0,6.8,42.489H33.464a1.112,1.112,0,0,0,1.111-1.112V25.821a1.111,1.111,0,0,0-1.111-1.111H6.8A1.111,1.111,0,0,0,5.684,25.821Z" transform="translate(0 0)" fill="#00a1ed" fill-rule="evenodd"/>
  </g>
</svg>
