<svg xmlns="http://www.w3.org/2000/svg" width="28.07" height="32.146" viewBox="0 0 28.07 32.146">
  <g id="ico_menu-reservacion-prepara" transform="translate(-5 -0.961)">
    <path id="Path_1984" data-name="Path 1984" d="M32.04,7.3,25.518,4.743a1.68,1.68,0,0,0-1.655-1.5H21.655L16.037,1.081a1.648,1.648,0,0,0-2.157.953l-.451,1.2H6.706A1.724,1.724,0,0,0,5,4.944v24.18A1.692,1.692,0,0,0,6.706,30.83h9.782l5.568,2.157a1.648,1.648,0,0,0,2.157-.953l.6-1.555a1.689,1.689,0,0,0,.652-1.354v-.4L32.943,9.459A1.642,1.642,0,0,0,32.04,7.3ZM14.682,2.385a.777.777,0,0,1,1.053-.451l3.512,1.354H14.331ZM5.853,29.124V4.944a.792.792,0,0,1,.8-.8H23.812a.792.792,0,0,1,.8.8v24.18a.791.791,0,0,1-.8.8H6.655A.825.825,0,0,1,5.853,29.124Zm17.558,2.558a.794.794,0,0,1-1.053.452L18.846,30.78h4.916ZM32.19,9.158h0L25.518,26.315V5.7L31.739,8.1A.836.836,0,0,1,32.19,9.158Z" fill="#33b5e5"/>
    <path id="Path_1985" data-name="Path 1985" d="M17.925,26.25h0a7.525,7.525,0,1,0,0-15.05h0a7.525,7.525,0,0,0,0,15.05Zm-5.318-3.562h2.057a7.948,7.948,0,0,0,1.154,2.358A6.908,6.908,0,0,1,12.607,22.688Zm11.94-4.415H21.788a14.207,14.207,0,0,0-.351-2.659h2.358A6.233,6.233,0,0,1,24.547,18.273Zm-7.023,4.415V25.3a3.873,3.873,0,0,1-1.956-2.609Zm-2.207-.853a13.662,13.662,0,0,1-.351-2.659h2.558v2.659Zm3.06,3.461V22.638h1.956C19.881,24.093,19.179,25.046,18.376,25.3Zm0-3.461V19.176h2.558a14.207,14.207,0,0,1-.351,2.659Zm3.411-2.659h2.759a6.038,6.038,0,0,1-.752,2.659H21.437A9.2,9.2,0,0,0,21.788,19.176Zm-.853-.9H18.376V15.615h2.207A15.419,15.419,0,0,1,20.935,18.273Zm-2.558-3.512V12.2c.8.251,1.455,1.2,1.956,2.558ZM17.524,12.2v2.558H15.567A4.035,4.035,0,0,1,17.524,12.2Zm0,3.461v2.659H14.965a13.662,13.662,0,0,1,.351-2.659h2.207Zm-3.411,2.609H11.353a6.788,6.788,0,0,1,.752-2.659h2.358A9.441,9.441,0,0,0,14.112,18.273Zm0,.9a14.348,14.348,0,0,0,.3,2.659H12.055a7.758,7.758,0,0,1-.752-2.659Zm5.97,5.869a7.948,7.948,0,0,0,1.154-2.358h2.057A6.909,6.909,0,0,1,20.082,25.046Zm3.16-10.284H21.236a8.264,8.264,0,0,0-1.154-2.308A6.925,6.925,0,0,1,23.243,14.762ZM15.818,12.5a7.624,7.624,0,0,0-1.154,2.308H12.657A6.076,6.076,0,0,1,15.818,12.5Z" transform="translate(-2.691 -5.102)" fill="#33b5e5"/>
    <path id="Path_1986" data-name="Path 1986" d="M25.443,52.351a.45.45,0,0,0-.451-.451H13.051a.451.451,0,0,0,0,.9h11.94A.529.529,0,0,0,25.443,52.351Z" transform="translate(-3.787 -25.385)" fill="#33b5e5"/>
    <path id="Path_1987" data-name="Path 1987" d="M13.051,47.25a.45.45,0,0,0-.451.451.41.41,0,0,0,.451.4h9.08a.451.451,0,1,0,0-.9h-9.08Z" transform="translate(-3.787 -23.042)" fill="#33b5e5"/>
  </g>
</svg>
