<svg xmlns="http://www.w3.org/2000/svg" width="103.021" height="17.363" viewBox="0 0 103.021 17.363">
  <g id="ico_logo_tag" transform="translate(-41.399 -89.977)">
    <path id="Path_27" data-name="Path 27" d="M581.072,144.466s2.091.036,3.245-.072c-.072,0-1.732,1.46-7.438,2.637C576.835,146.99,581.072,144.466,581.072,144.466Z" transform="translate(-448.188 -45.546)" fill="#00a1ed"/>
    <path id="Path_28" data-name="Path 28" d="M575.881,133.908l1.46-3.191s5.571-.3,8.411-2C585.752,128.715,578.91,132.826,575.881,133.908Z" transform="translate(-447.353 -32.423)" fill="#fff"/>
    <path id="Path_29" data-name="Path 29" d="M42.12,93.549s-.974-.108-.469-.757c.541-.757,2.019-2.488,2.019-2.488a1.267,1.267,0,0,1,.865-.325c.649.036,22.429,0,22.429,0s.938.144.5.865c-.361.361-1.983,2.416-1.983,2.416s-.108.289-.721.289c-.577.036-6.563,0-6.563,0l-8.654,13.738H41.4l8.8-13.666Z" transform="translate(0 -0.002)" fill="#fff"/>
    <path id="Path_30" data-name="Path 30" d="M173.043,92.006c-.42-2.1-4.293-2.028-4.293-2.028s-7.841.144-13.105.072a9.869,9.869,0,0,0-7.933,3.75l-8.719,13.513h7.547l4.246-6.626h10.628l-4.165,6.545,7.464.108s7.491-11.6,8.059-12.873A3.536,3.536,0,0,0,173.043,92.006Zm-7.937,2.732a22.032,22.032,0,0,1-1.393,2.461h-10.6l.865-1.488a4.663,4.663,0,0,1,3.11-2.136c1.947-.027,6.977-.027,6.977-.027S165.619,93.588,165.106,94.737Z" transform="translate(-81.685 0)" fill="#fff"/>
    <path id="Path_31" data-name="Path 31" d="M316.651,107.709s-3.534.108-2.019-2.452,6.815-10.709,6.815-10.709,2.416-4.183,8.474-3.967c6.022-.036,16.8-.036,16.8-.036s.577-.144.288.361-1.442,2.344-1.442,2.344a1.549,1.549,0,0,1-1.442.721h-12.44s-2.452.108-3.245,1.406c-1.046,1.334-4.471,6.815-4.471,6.815s-1.3,2.055.938,2.416h5.319l2.217-3.5h-2.091s-1.118-.036-.541-.865,1.767-2.164,1.767-2.164.18-.469,1.478-.5h9.123s.577.036.108.649l-4.94,7.789s-.865,1.659-3.678,1.695C330.533,107.781,316.507,107.709,316.651,107.709Z" transform="translate(-228.375 -0.459)" fill="#fff"/>
    <path id="Path_32" data-name="Path 32" d="M469.764,150.2h.936l-.505,7.386H468.99l.162-1.826-3.627,0-1.679,1.824H462.64Zm-.54,4.684.314-3.39h-.022l-3.177,3.388Z" transform="translate(-352.572 -50.401)" fill="#fff"/>
    <path id="Path_33" data-name="Path 33" d="M513.218,152.548h.969l-2.518,4.943H510.7Zm.681-1.773a1.3,1.3,0,0,1,.457-.485,1.1,1.1,0,0,1,.6-.2.411.411,0,0,1,.4.2.5.5,0,0,1-.037.485,1.3,1.3,0,0,1-.457.485,1.1,1.1,0,0,1-.6.2.411.411,0,0,1-.4-.2A.5.5,0,0,1,513.9,150.775Z" transform="translate(-392.797 -50.311)" fill="#fff"/>
    <path id="Path_34" data-name="Path 34" d="M525.3,164.558h.969l-.386.761h.022a3.058,3.058,0,0,1,.945-.641,2.564,2.564,0,0,1,1.037-.244,1.1,1.1,0,0,1,.4.063l-.564,1.012c-.071-.021-.142-.038-.212-.052a1.153,1.153,0,0,0-.224-.021,2.238,2.238,0,0,0-1.282.385,3.107,3.107,0,0,0-.988,1.2L523.75,169.5h-.969Z" transform="translate(-402.909 -62.32)" fill="#fff"/>
    <path id="Path_35" data-name="Path 35" d="M548.392,147.165h.969l-4.024,7.884h-.969Z" transform="translate(-420.977 -47.865)" fill="#fff"/>
    <path id="Path_36" data-name="Path 36" d="M560.428,165.215h.968l-2.518,4.943h-.969Z" transform="translate(-432.311 -62.973)" fill="#fff"/>
    <path id="Path_37" data-name="Path 37" d="M574.509,164.589h.969l-.386.761h.022a3,3,0,0,1,.966-.641,2.946,2.946,0,0,1,1.166-.244,1.787,1.787,0,0,1,.649.11.81.81,0,0,1,.42.339.956.956,0,0,1,.1.59,2.421,2.421,0,0,1-.289.85l-1.615,3.181h-.969l1.488-2.92a1.946,1.946,0,0,0,.2-.589.676.676,0,0,0-.049-.4.466.466,0,0,0-.259-.219,1.142,1.142,0,0,0-.406-.068,2.094,2.094,0,0,0-.61.093,2.176,2.176,0,0,0-.6.3,2.877,2.877,0,0,0-.56.516,3.922,3.922,0,0,0-.486.74l-1.3,2.545h-.968Z" transform="translate(-444.097 -62.346)" fill="#fff"/>
    <path id="Path_38" data-name="Path 38" d="M611.279,167.427a1.224,1.224,0,0,0-.15.589.784.784,0,0,0,.153.454.919.919,0,0,0,.4.292,1.579,1.579,0,0,0,.594.1,2.086,2.086,0,0,0,.89-.2,5.316,5.316,0,0,0,.892-.537l.447.543a4.476,4.476,0,0,1-2.77,1.01,2.155,2.155,0,0,1-.988-.2,1.166,1.166,0,0,1-.548-.548,1.51,1.51,0,0,1-.107-.824,2.993,2.993,0,0,1,.343-1.027,4.385,4.385,0,0,1,.72-1.027,5.331,5.331,0,0,1,.974-.823,4.878,4.878,0,0,1,1.115-.547,3.577,3.577,0,0,1,1.154-.2,1.9,1.9,0,0,1,1.03.23,1.079,1.079,0,0,1,.464.6,1.621,1.621,0,0,1,.007.835,4.174,4.174,0,0,1-.345.944l-.176.334Zm3.46-.749a2.18,2.18,0,0,0,.188-.574.824.824,0,0,0-.04-.454.6.6,0,0,0-.3-.3,1.329,1.329,0,0,0-.588-.11,2.112,2.112,0,0,0-.72.13,3.291,3.291,0,0,0-.682.339,3.2,3.2,0,0,0-.565.464,2.064,2.064,0,0,0-.369.506Z" transform="translate(-475.976 -62.364)" fill="#fff"/>
    <path id="Path_39" data-name="Path 39" d="M643.147,165.874a.7.7,0,0,0-.244-.35.879.879,0,0,0-.546-.141,1.673,1.673,0,0,0-.67.14.861.861,0,0,0-.457.412.375.375,0,0,0-.038.355.542.542,0,0,0,.232.219,1.341,1.341,0,0,0,.358.126l.35.073a2.881,2.881,0,0,1,.495.178.835.835,0,0,1,.337.271.633.633,0,0,1,.1.407,1.572,1.572,0,0,1-.181.584,2.516,2.516,0,0,1-.546.714,3.019,3.019,0,0,1-.721.485,3.413,3.413,0,0,1-.8.271,3.971,3.971,0,0,1-.789.083,2.3,2.3,0,0,1-1.013-.188.993.993,0,0,1-.507-.689l1.021-.584a1.386,1.386,0,0,0,.326.407.942.942,0,0,0,.628.178,2.207,2.207,0,0,0,.78-.151,1.028,1.028,0,0,0,.574-.474.386.386,0,0,0,.044-.344.464.464,0,0,0-.213-.214,1.51,1.51,0,0,0-.343-.125q-.194-.047-.333-.078a4.436,4.436,0,0,1-.512-.167.956.956,0,0,1-.373-.251.6.6,0,0,1-.141-.4,1.315,1.315,0,0,1,.18-.595,2.315,2.315,0,0,1,.51-.673,3.087,3.087,0,0,1,.685-.474,3.4,3.4,0,0,1,.77-.281,3.31,3.31,0,0,1,.755-.093,1.987,1.987,0,0,1,.895.188.761.761,0,0,1,.433.626Z" transform="translate(-499.768 -62.38)" fill="#fff"/>
  </g>
</svg>
