<svg xmlns="http://www.w3.org/2000/svg" width="25.327" height="34.562" viewBox="0 0 25.327 34.562">
  <path id="ico_menu-reservacion-equipaje" d="M43.743,25.88H41.169V23.939a1.18,1.18,0,0,0-1.182-1.182h-.8V18.031a1.243,1.243,0,0,0-1.266-1.266h-4.9v-6.2A1.558,1.558,0,0,0,31.463,9h-3.84a1.558,1.558,0,0,0-1.561,1.561v6.161h-4.9A1.243,1.243,0,0,0,19.9,17.989V40.777a1.243,1.243,0,0,0,1.266,1.266H21.5a1.946,1.946,0,0,0,3.8,0h8.44a1.946,1.946,0,0,0,3.8,0h.3A1.243,1.243,0,0,0,39.1,40.777v-.253h.76a1.946,1.946,0,0,0,3.8,0h0a1.558,1.558,0,0,0,1.561-1.561V27.442A1.463,1.463,0,0,0,43.743,25.88ZM39.987,23.6a.333.333,0,0,1,.338.338V25.88H39.143V23.559h.844ZM26.905,10.561a.711.711,0,0,1,.717-.717h3.84a.711.711,0,0,1,.717.717v6.161H26.905Zm-3.5,32.2a1.119,1.119,0,0,1-1.013-.675h2.068A1.181,1.181,0,0,1,23.4,42.76Zm12.28,0a1.119,1.119,0,0,1-1.013-.675h2.068A1.181,1.181,0,0,1,35.683,42.76Zm2.659-1.941a.4.4,0,0,1-.422.422h-16.8a.4.4,0,0,1-.422-.422V18.031a.4.4,0,0,1,.422-.422H37.877a.4.4,0,0,1,.422.422V40.819Zm3.46.422a1.119,1.119,0,0,1-1.013-.675h2.068A1.181,1.181,0,0,1,41.8,41.241Zm2.659-2.279a.711.711,0,0,1-.717.717H39.186V26.724h4.6a.711.711,0,0,1,.717.717V38.962Z" transform="translate(-19.9 -9)" fill="#00a1ed"/>
</svg>
