<svg xmlns="http://www.w3.org/2000/svg" width="22" height="22" viewBox="0 0 22 22">
  <path id="icon_whatsapp" d="M20.786,5.221a10.989,10.989,0,0,0-17.3,13.254L2,24l5.757-1.361a10.979,10.979,0,0,0,5.251,1.338h0A10.99,10.99,0,0,0,20.786,5.221Zm-2.4,11.689a2.769,2.769,0,0,1-1.854,1.3c-.5.046-.976.228-3.295-.686a11.26,11.26,0,0,1-4.69-4.144A5.338,5.338,0,0,1,7.43,10.545a3.073,3.073,0,0,1,.961-2.289,1.008,1.008,0,0,1,.733-.343c.183,0,.366,0,.526.007.2.008.413.018.618.474.244.543.778,1.9.846,2.038a.507.507,0,0,1,.023.481,1.906,1.906,0,0,1-.274.458c-.138.161-.288.357-.411.481s-.281.286-.121.56a8.259,8.259,0,0,0,1.527,1.9,7.542,7.542,0,0,0,2.208,1.363c.275.137.435.114.6-.069s.686-.8.869-1.076.366-.229.618-.138,1.6.756,1.876.893.458.206.526.32A2.3,2.3,0,0,1,18.389,16.909Z" transform="translate(-2 -2)" fill="#152049"/>
</svg>
