<svg xmlns="http://www.w3.org/2000/svg" width="20" height="20" viewBox="0 0 20 20">
  <path id="icon_twitter" d="M20.778,3H5.222A2.222,2.222,0,0,0,3,5.222V20.778A2.222,2.222,0,0,0,5.222,23H20.778A2.222,2.222,0,0,0,23,20.778V5.222A2.222,2.222,0,0,0,20.778,3Zm-2.167,7.238v.381a7.763,7.763,0,0,1-7.81,7.81,8,8,0,0,1-4.19-1.238h.667a6.16,6.16,0,0,0,3.429-1.143,2.777,2.777,0,0,1-2.571-1.9,4.161,4.161,0,0,1,.477.1,2.092,2.092,0,0,0,.762-.1,2.752,2.752,0,0,1-2.19-2.667,4.752,4.752,0,0,0,1.238.381A3.12,3.12,0,0,1,7.184,9.477a2.187,2.187,0,0,1,.381-1.333A7.73,7.73,0,0,0,13.184,11c0-.19-.1-.381-.1-.667a2.764,2.764,0,0,1,2.762-2.762,2.6,2.6,0,0,1,2,.857,4.623,4.623,0,0,0,1.714-.667,2.784,2.784,0,0,1-1.238,1.523,5.21,5.21,0,0,0,1.619-.477A6.432,6.432,0,0,1,18.611,10.238Z" transform="translate(-3 -3)" fill="#152049"/>
</svg>
