<svg xmlns="http://www.w3.org/2000/svg" width="27" height="20" viewBox="0 0 27 20">
  <g id="ico_flag-en" transform="translate(-20 -634)">
    <rect id="Rectangle_17071" data-name="Rectangle 17071" width="27" height="20" transform="translate(20 634)" fill="#fff" opacity="0.3"/>
    <path id="ico_flag-us" d="M116.817,39.684a7.124,7.124,0,1,1-5.043,2.086A7.113,7.113,0,0,1,116.817,39.684Zm.451.347a9.041,9.041,0,0,1,2.328,3.211h3.009a6.913,6.913,0,0,0-.981-1.236,6.781,6.781,0,0,0-4.356-1.975Zm2.459,3.545a9.213,9.213,0,0,1,.608,3.074h3.277a6.765,6.765,0,0,0-.818-3.074Zm.608,3.4a9.022,9.022,0,0,1-.582,3.074H122.8a6.764,6.764,0,0,0,.818-3.074Zm-.72,3.408a8.75,8.75,0,0,1-1.223,2.047,9.37,9.37,0,0,1-1.118,1.164,6.764,6.764,0,0,0,4.349-1.975,6.913,6.913,0,0,0,.981-1.236Zm-2.636,3.028a8.535,8.535,0,0,0,1.151-1.184,8.306,8.306,0,0,0,1.125-1.844h-2.276v3.028Zm2.42-3.362a8.713,8.713,0,0,0,.6-3.074H116.98v3.074Zm.6-3.4a8.923,8.923,0,0,0-.628-3.074h-2.394V46.65H120Zm-.765-3.408a8.926,8.926,0,0,0-1.1-1.812,8.775,8.775,0,0,0-1.158-1.21v3.022Zm-2.583-3.022a8.759,8.759,0,0,0-1.158,1.21,8.928,8.928,0,0,0-1.1,1.812h2.256Zm-2.394,3.355a8.922,8.922,0,0,0-.628,3.074h3.022V43.576Zm-.628,3.4a8.713,8.713,0,0,0,.6,3.074h2.42V46.977Zm.746,3.408a8.3,8.3,0,0,0,1.125,1.844,8.527,8.527,0,0,0,1.151,1.184V50.384Zm1.982,3.211a9.369,9.369,0,0,1-1.118-1.164,8.75,8.75,0,0,1-1.223-2.047h-2.989a6.913,6.913,0,0,0,.981,1.236,6.764,6.764,0,0,0,4.349,1.975ZM113.88,50.05a9.024,9.024,0,0,1-.582-3.074h-3.277a6.765,6.765,0,0,0,.818,3.074Zm-.582-3.4a9.211,9.211,0,0,1,.608-3.074h-3.067a6.764,6.764,0,0,0-.818,3.074Zm.739-3.408a9.042,9.042,0,0,1,2.328-3.211,6.782,6.782,0,0,0-4.356,1.975,6.912,6.912,0,0,0-.981,1.236h3.009Z" transform="translate(-83.723 597.187)" fill="#00a1ed"/>
  </g>
</svg>
